<svg xmlns="http://www.w3.org/2000/svg" width="1024" height="1024" viewBox="-192 -192 1408 1408">
<g>
<path d="M 0.00 782.17 C0.00,915.22 0.19,1023.92 0.42,1023.92 L 0.42 1023.92 C0.65,1023.69 46.01,978.50 101.22,923.50 C221.29,803.89 251.36,774.32 256.29,771.00 C258.33,769.62 260.26,767.71 260.57,766.75 C260.88,765.79 261.76,765.00 262.52,765.00 C263.29,765.00 266.66,762.41 270.02,759.25 C273.62,755.85 277.01,753.50 278.31,753.50 C281.03,753.50 282.79,756.65 283.19,762.25 L 283.50 766.50 L 288.14 766.80 C293.88,767.17 295.76,769.09 296.18,775.00 L 296.50 779.50 L 301.21 780.04 C303.80,780.34 306.25,780.92 306.67,781.33 C307.08,781.75 307.66,784.20 307.96,786.79 L 308.50 791.50 L 313.14 791.80 C318.88,792.17 320.76,794.09 321.18,800.00 L 321.50 804.50 L 326.14 804.80 C331.88,805.17 333.76,807.09 334.18,813.00 L 334.50 817.50 L 339.14 817.80 C344.88,818.17 346.76,820.09 347.18,826.00 L 347.50 830.50 L 352.14 830.80 C357.88,831.17 359.76,833.09 360.18,839.00 L 360.50 843.50 L 365.21 844.04 C367.80,844.34 370.25,844.92 370.67,845.33 C371.08,845.75 371.66,848.20 371.96,850.79 L 372.50 855.50 L 377.14 855.80 C382.88,856.17 384.76,858.09 385.18,864.00 L 385.50 868.50 L 390.14 868.80 C395.88,869.17 397.76,871.09 398.18,877.00 L 398.50 881.50 L 403.14 881.80 C408.88,882.17 410.76,884.09 411.18,890.00 L 411.50 894.50 L 416.14 894.80 C421.88,895.17 423.76,897.09 424.18,903.00 L 424.50 907.50 L 429.21 908.04 C431.80,908.34 434.25,908.92 434.67,909.33 C435.08,909.75 435.66,912.20 435.96,914.79 L 436.50 919.50 L 441.14 919.80 C446.88,920.17 448.76,922.09 449.18,928.00 L 449.50 932.50 L 454.14 932.80 C459.88,933.17 461.76,935.09 462.18,941.00 L 462.50 945.50 L 467.14 945.80 C472.88,946.17 474.76,948.09 475.18,954.00 L 475.50 958.50 L 480.14 958.80 C485.88,959.17 487.76,961.09 488.18,967.00 L 488.50 971.50 L 493.21 972.04 C495.80,972.34 498.25,972.92 498.67,973.33 C499.08,973.75 499.66,976.20 499.96,978.79 L 500.50 983.50 L 505.14 983.80 C510.88,984.17 512.76,986.09 513.18,992.00 L 513.50 996.50 L 518.00 996.82 C523.91,997.24 525.83,999.12 526.20,1004.86 L 526.50 1009.50 L 531.00 1009.82 C537.32,1010.27 539.00,1012.13 539.00,1018.65 L 539.00 1024.00 L 0.00 1024.00 L 0.00 0.00 L 580.00 0.00 C182.81,0.00 136.00,0.16 136.00,1.52 C136.00,2.36 137.99,4.25 140.43,5.72 C142.86,7.19 145.80,10.07 146.95,12.12 C148.10,14.17 151.03,17.10 153.46,18.64 C155.89,20.17 158.84,23.15 160.02,25.26 C161.21,27.36 163.95,30.20 166.11,31.57 C168.27,32.93 171.57,36.18 173.44,38.77 C175.32,41.37 178.40,44.33 180.29,45.33 C182.18,46.34 184.72,48.93 185.93,51.08 C187.14,53.24 189.11,55.50 190.31,56.12 C193.54,57.78 197.98,62.12 199.58,65.18 C200.35,66.65 202.73,68.84 204.87,70.05 C207.01,71.25 209.73,73.95 210.90,76.04 C212.08,78.13 215.03,81.10 217.46,82.64 C219.89,84.17 222.84,87.15 224.02,89.26 C225.21,91.36 227.95,94.20 230.11,95.57 C232.27,96.93 235.57,100.18 237.44,102.77 C239.32,105.37 242.40,108.33 244.29,109.33 C246.18,110.34 248.72,112.93 249.93,115.08 C251.14,117.24 253.11,119.50 254.31,120.12 C257.54,121.78 261.98,126.12 263.58,129.18 C264.35,130.65 266.73,132.84 268.87,134.05 C271.01,135.25 273.73,137.95 274.90,140.04 C276.08,142.13 279.03,145.10 281.46,146.64 C283.89,148.17 286.84,151.15 288.02,153.26 C289.21,155.36 291.95,158.20 294.11,159.57 C296.27,160.93 299.57,164.18 301.44,166.77 C303.32,169.37 306.40,172.33 308.29,173.33 C310.18,174.34 312.66,176.82 313.79,178.84 C314.93,180.86 316.95,183.54 318.28,184.79 C320.42,186.81 320.85,186.89 321.97,185.53 C322.67,184.69 324.57,184.00 326.19,184.00 C328.78,184.00 329.05,184.27 328.43,186.25 C326.95,191.01 326.11,192.56 324.11,194.22 C322.97,195.17 322.29,196.58 322.59,197.36 C322.88,198.14 322.09,199.88 320.81,201.21 C319.54,202.55 314.67,207.87 310.00,213.03 C305.33,218.19 298.19,225.81 294.15,229.96 C290.10,234.11 285.53,239.20 283.99,241.27 C281.92,244.06 234.13,295.20 217.00,312.97 C216.18,313.82 202.92,327.79 187.55,344.01 C156.24,377.06 147.92,385.82 133.49,400.98 C127.99,406.77 119.43,415.77 114.48,421.00 C95.08,441.48 68.57,469.39 50.96,487.89 C40.81,498.56 25.57,514.65 17.10,523.64 C8.64,532.64 1.32,540.00 0.85,540.00 C0.38,540.00 0.00,648.97 0.00,782.17 Z" fill="rgb(26,141,215)"/>
<path d="M 0.00 782.17 C0.00,772.64 0.00,763.24 0.01,754.00 L 2.51 754.00 C3.90,754.00 5.81,754.42 6.76,754.93 C7.72,755.44 9.18,756.06 10.00,756.30 C10.83,756.55 12.10,758.49 12.82,760.62 C15.30,767.96 16.06,768.88 19.89,769.20 C23.45,769.50 23.50,769.57 23.81,774.33 C24.05,778.20 24.42,779.05 25.65,778.58 C26.64,778.20 27.37,778.69 27.70,779.94 C28.08,781.41 29.23,781.97 32.35,782.20 C36.47,782.50 36.50,782.53 36.81,786.81 C37.01,789.55 37.55,790.98 38.29,790.74 C39.85,790.22 41.86,792.19 41.29,793.68 C40.99,794.47 42.31,794.98 45.17,795.19 C49.47,795.50 49.50,795.52 49.80,799.65 C50.04,802.86 50.57,803.92 52.18,804.34 C53.53,804.69 54.06,805.41 53.68,806.39 C53.23,807.58 54.10,807.96 57.80,808.20 C62.30,808.49 62.51,808.64 62.81,811.77 C63.24,816.22 67.04,819.80 71.73,820.19 C75.47,820.50 75.50,820.54 75.81,825.27 C75.97,827.90 76.51,829.81 76.99,829.51 C77.47,829.21 78.47,829.84 79.22,830.90 C80.01,832.03 82.04,832.98 84.04,833.17 C87.41,833.49 87.51,833.62 87.81,838.33 C88.05,842.20 88.42,843.05 89.65,842.58 C90.64,842.20 91.37,842.69 91.70,843.94 C92.08,845.41 93.23,845.97 96.35,846.20 C100.47,846.50 100.50,846.53 100.81,850.81 C101.01,853.55 101.55,854.98 102.29,854.74 C103.85,854.22 105.86,856.19 105.29,857.68 C104.99,858.47 106.31,858.98 109.17,859.19 C113.47,859.50 113.50,859.52 113.80,863.65 C114.04,866.86 114.57,867.92 116.18,868.34 C117.53,868.69 118.06,869.41 117.68,870.39 C117.23,871.58 118.10,871.96 121.80,872.20 L 126.50 872.50 L 126.80 876.68 C127.09,880.60 127.29,880.86 130.06,880.78 C131.68,880.73 133.88,881.48 134.94,882.45 C136.59,883.94 137.13,884.00 138.59,882.85 C142.81,879.53 209.53,813.52 332.51,691.01 C405.66,618.13 476.43,547.70 489.78,534.51 L 514.04 510.51 L 545.82 542.51 C563.29,560.10 643.03,640.42 723.01,721.00 C802.99,801.58 902.84,902.02 944.91,944.22 C986.97,986.42 1021.77,1021.63 1022.24,1022.47 C1022.71,1023.31 1023.30,1024.00 1023.55,1024.00 C1023.80,1024.00 1024.00,793.60 1024.00,512.00 L 1024.00 1024.00 L 539.00 1024.00 L 539.00 1018.65 C539.00,1012.13 537.32,1010.27 531.00,1009.82 L 526.50 1009.50 L 526.20 1004.86 C525.83,999.12 523.91,997.24 518.00,996.82 L 513.50 996.50 L 513.18 992.00 C512.76,986.09 510.88,984.17 505.14,983.80 L 500.50 983.50 L 499.96 978.79 C499.66,976.20 499.08,973.75 498.67,973.33 C498.25,972.92 495.80,972.34 493.21,972.04 L 488.50 971.50 L 488.18 967.00 C487.76,961.09 485.88,959.17 480.14,958.80 L 475.50 958.50 L 475.18 954.00 C474.76,948.09 472.88,946.17 467.14,945.80 L 462.50 945.50 L 462.18 941.00 C461.76,935.09 459.88,933.17 454.14,932.80 L 449.50 932.50 L 449.18 928.00 C448.76,922.09 446.88,920.17 441.14,919.80 L 436.50 919.50 L 435.96 914.79 C435.66,912.20 435.08,909.75 434.67,909.33 C434.25,908.92 431.80,908.34 429.21,908.04 L 424.50 907.50 L 424.18 903.00 C423.76,897.09 421.88,895.17 416.14,894.80 L 411.50 894.50 L 411.18 890.00 C410.76,884.09 408.88,882.17 403.14,881.80 L 398.50 881.50 L 398.18 877.00 C397.76,871.09 395.88,869.17 390.14,868.80 L 385.50 868.50 L 385.18 864.00 C384.76,858.09 382.88,856.17 377.14,855.80 L 372.50 855.50 L 371.96 850.79 C371.66,848.20 371.08,845.75 370.67,845.33 C370.25,844.92 367.80,844.34 365.21,844.04 L 360.50 843.50 L 360.18 839.00 C359.76,833.09 357.88,831.17 352.14,830.80 L 347.50 830.50 L 347.18 826.00 C346.76,820.09 344.88,818.17 339.14,817.80 L 334.50 817.50 L 334.18 813.00 C333.76,807.09 331.88,805.17 326.14,804.80 L 321.50 804.50 L 321.18 800.00 C320.76,794.09 318.88,792.17 313.14,791.80 L 308.50 791.50 L 307.96 786.79 C307.66,784.20 307.08,781.75 306.67,781.33 C306.25,780.92 303.80,780.34 301.21,780.04 L 296.50 779.50 L 296.18 775.00 C295.76,769.09 293.88,767.17 288.14,766.80 L 283.50 766.50 L 283.19 762.25 C282.79,756.65 281.03,753.50 278.31,753.50 C277.01,753.50 273.62,755.85 270.02,759.25 C266.66,762.41 263.29,765.00 262.52,765.00 C261.76,765.00 260.88,765.79 260.57,766.75 C260.26,767.71 258.33,769.62 256.29,771.00 C251.36,774.32 221.29,803.89 101.22,923.50 C46.01,978.50 0.65,1023.69 0.42,1023.92 L 0.42 1023.92 C0.19,1023.92 0.00,915.22 0.00,782.17 ZM 513.11 0.00 L 507.81 5.71 C497.63,16.65 484.88,30.11 445.94,71.02 C414.44,104.12 357.78,163.98 355.67,166.40 C353.01,169.45 341.25,181.87 329.06,194.50 C323.22,200.55 310.60,213.82 301.01,224.00 C291.43,234.18 280.38,245.88 276.46,250.00 C273.28,253.35 264.98,262.13 256.42,271.21 C270.65,255.97 282.96,242.66 283.99,241.27 C285.53,239.20 290.10,234.11 294.15,229.96 C298.19,225.81 305.33,218.19 310.00,213.03 C314.67,207.87 319.54,202.55 320.81,201.21 C322.09,199.88 322.88,198.14 322.59,197.36 C322.29,196.58 322.97,195.17 324.11,194.22 C326.11,192.56 326.95,191.01 328.43,186.25 C329.05,184.27 328.78,184.00 326.19,184.00 C324.57,184.00 322.67,184.69 321.97,185.53 C320.85,186.89 320.42,186.81 318.28,184.79 C316.95,183.54 314.93,180.86 313.79,178.84 C312.66,176.82 310.18,174.34 308.29,173.33 C306.40,172.33 303.32,169.37 301.44,166.77 C299.57,164.18 296.27,160.93 294.11,159.57 C291.95,158.20 289.21,155.36 288.02,153.26 C286.84,151.15 283.89,148.17 281.46,146.64 C279.03,145.10 276.08,142.13 274.90,140.04 C273.73,137.95 271.01,135.25 268.87,134.05 C266.73,132.84 264.35,130.65 263.58,129.18 C261.98,126.12 257.54,121.78 254.31,120.12 C253.11,119.50 251.14,117.24 249.93,115.08 C248.72,112.93 246.18,110.34 244.29,109.33 C242.40,108.33 239.32,105.37 237.44,102.77 C235.57,100.18 232.27,96.93 230.11,95.57 C227.95,94.20 225.21,91.36 224.02,89.26 C222.84,87.15 219.89,84.17 217.46,82.64 C215.03,81.10 212.08,78.13 210.90,76.04 C209.73,73.95 207.01,71.25 204.87,70.05 C202.73,68.84 200.35,66.65 199.58,65.18 C197.98,62.12 193.54,57.78 190.31,56.12 C189.11,55.50 187.14,53.24 185.93,51.08 C184.72,48.93 182.18,46.34 180.29,45.33 C178.40,44.33 175.32,41.37 173.44,38.77 C171.57,36.18 168.27,32.93 166.11,31.57 C163.95,30.20 161.21,27.36 160.02,25.26 C158.84,23.15 155.89,20.17 153.46,18.64 C151.03,17.10 148.10,14.17 146.95,12.12 C145.80,10.07 142.86,7.19 140.43,5.72 C137.99,4.25 136.00,2.36 136.00,1.52 C136.00,0.24 177.44,0.02 513.11,0.00 ZM 131.00 888.02 C133.24,889.44 134.29,889.20 133.61,887.42 C133.27,886.55 133.00,885.33 133.00,884.70 C133.00,884.08 132.21,884.36 131.25,885.32 C129.72,886.85 129.69,887.19 131.00,888.02 Z" fill="rgb(115,114,219)"/>
<path d="M 513.11 0.00 C534.22,0.00 556.50,0.00 580.00,0.00 L 1024.00 0.00 L 1024.00 512.00 C1024.00,793.60 1023.80,1024.00 1023.55,1024.00 C1023.30,1024.00 1022.72,1023.32 1022.25,1022.49 C1022.36,1022.61 1022.42,1022.69 1022.44,1022.72 C1022.45,1022.73 1022.45,1022.73 1022.45,1022.73 C1023.63,1022.73 1024.18,693.75 1023.75,256.42 L 1023.50 1.01 L 768.75 255.74 L 514.01 510.47 L 545.80 542.48 C553.75,550.49 574.58,571.47 602.45,599.55 C574.59,571.48 553.76,550.51 545.82,542.51 L 514.04 510.51 L 489.78 534.51 C476.43,547.70 405.66,618.13 332.51,691.01 C209.53,813.52 142.81,879.53 138.59,882.85 C137.13,884.00 136.59,883.94 134.94,882.45 C133.88,881.48 131.68,880.73 130.06,880.78 C127.29,880.86 127.09,880.60 126.80,876.68 L 126.50 872.50 L 121.80 872.20 C118.10,871.96 117.23,871.58 117.68,870.39 C118.06,869.41 117.53,868.69 116.18,868.34 C114.57,867.92 114.04,866.86 113.80,863.65 C113.50,859.52 113.47,859.50 109.17,859.19 C106.31,858.98 104.99,858.47 105.29,857.68 C105.86,856.19 103.85,854.22 102.29,854.74 C101.55,854.98 101.01,853.55 100.81,850.81 C100.50,846.53 100.47,846.50 96.35,846.20 C93.23,845.97 92.08,845.41 91.70,843.94 C91.37,842.69 90.64,842.20 89.65,842.58 C88.42,843.05 88.05,842.20 87.81,838.33 C87.51,833.62 87.41,833.49 84.04,833.17 C82.04,832.98 80.01,832.03 79.22,830.90 C78.47,829.84 77.47,829.21 76.99,829.51 C76.51,829.81 75.97,827.90 75.81,825.27 C75.50,820.54 75.47,820.50 71.73,820.19 C67.04,819.80 63.24,816.22 62.81,811.77 C62.51,808.64 62.30,808.49 57.80,808.20 C54.10,807.96 53.23,807.58 53.68,806.39 C54.06,805.41 53.53,804.69 52.18,804.34 C50.57,803.92 50.04,802.86 49.80,799.65 C49.50,795.52 49.47,795.50 45.17,795.19 C42.31,794.98 40.99,794.47 41.29,793.68 C41.86,792.19 39.85,790.22 38.29,790.74 C37.55,790.98 37.01,789.55 36.81,786.81 C36.50,782.53 36.47,782.50 32.35,782.20 C29.23,781.97 28.08,781.41 27.70,779.94 C27.37,778.69 26.64,778.20 25.65,778.58 C24.42,779.05 24.05,778.20 23.81,774.33 C23.50,769.57 23.45,769.50 19.89,769.20 C16.06,768.88 15.30,767.96 12.82,760.62 C12.10,758.49 10.83,756.55 10.00,756.30 C9.18,756.06 7.72,755.44 6.76,754.93 C5.81,754.42 3.90,754.00 2.51,754.00 L 0.01 754.00 C0.06,633.95 0.42,540.00 0.85,540.00 C1.32,540.00 8.64,532.64 17.10,523.64 C25.57,514.65 40.81,498.56 50.96,487.89 C68.57,469.39 95.08,441.48 114.48,421.00 C119.43,415.77 127.99,406.77 133.49,400.98 C147.92,385.82 156.24,377.06 187.55,344.01 C202.92,327.79 216.18,313.82 217.00,312.97 C225.62,304.03 242.01,286.63 256.42,271.21 C264.98,262.13 273.28,253.35 276.46,250.00 C280.38,245.88 291.43,234.18 301.01,224.00 C310.60,213.82 323.22,200.55 329.06,194.50 C341.25,181.87 353.01,169.45 355.67,166.40 C357.78,163.98 414.44,104.12 445.94,71.02 C484.88,30.11 497.63,16.65 507.81,5.71 ZM 131.00 888.02 C129.69,887.19 129.72,886.85 131.25,885.32 C132.21,884.36 133.00,884.08 133.00,884.70 C133.00,885.33 133.27,886.55 133.61,887.42 C134.29,889.20 133.24,889.44 131.00,888.02 Z" fill="rgb(233,122,61)"/>
</g>
</svg>
